<?xml version="1.0" encoding="utf-8"?>
<!-- Generator: Adobe Illustrator 23.0.2, SVG Export Plug-In . SVG Version: 6.00 Build 0)  -->
<svg version="1.1" id="Capa_1" xmlns="http://www.w3.org/2000/svg" xmlns:xlink="http://www.w3.org/1999/xlink" x="0px" y="0px"
	 viewBox="0 0 24 24" style="enable-background:new 0 0 24 24;" xml:space="preserve">
<style type="text/css">
	.st0{fill:#FFF5F7;}
</style>
<path class="st0" d="M19,21c-0.6,0-1.2-0.2-1.8-0.6c-0.5-0.4-0.9-0.9-1.1-1.4H11c-1.1,0-2-0.4-2.8-1.2C7.4,17,7,16.1,7,15
	s0.4-2,1.2-2.8C9,11.4,9.9,11,11,11h2c0.6,0,1-0.2,1.4-0.6C14.8,10,15,9.6,15,9s-0.2-1-0.6-1.4C14,7.2,13.6,7,13,7H7.8
	C7.6,7.6,7.2,8.1,6.7,8.4S5.7,9,5,9C4.2,9,3.5,8.7,2.9,8.1S2,6.8,2,6s0.3-1.5,0.9-2.1S4.2,3,5,3c0.7,0,1.2,0.2,1.7,0.6
	S7.6,4.4,7.8,5H13c1.1,0,2,0.4,2.8,1.2C16.6,7,17,7.9,17,9s-0.4,2-1.2,2.8C15,12.6,14.1,13,13,13h-2c-0.6,0-1,0.2-1.4,0.6
	S9,14.4,9,15s0.2,1,0.6,1.4S10.4,17,11,17h5.2c0.2-0.6,0.6-1.1,1.1-1.4S18.4,15,19,15c0.8,0,1.5,0.3,2.1,0.9
	c0.6,0.6,0.9,1.3,0.9,2.1s-0.3,1.5-0.9,2.1C20.5,20.7,19.8,21,19,21z M5,7c0.3,0,0.5-0.1,0.7-0.3S6,6.3,6,6S5.9,5.5,5.7,5.3
	C5.5,5.1,5.3,5,5,5S4.5,5.1,4.3,5.3C4.1,5.5,4,5.7,4,6s0.1,0.5,0.3,0.7C4.5,6.9,4.7,7,5,7z"/>
</svg>
