<?xml version="1.0" encoding="utf-8"?>
<!-- Generator: Adobe Illustrator 23.0.2, SVG Export Plug-In . SVG Version: 6.00 Build 0)  -->
<svg version="1.1" id="Capa_1" xmlns="http://www.w3.org/2000/svg" xmlns:xlink="http://www.w3.org/1999/xlink" x="0px" y="0px"
	 viewBox="0 0 24 24" style="enable-background:new 0 0 24 24;" xml:space="preserve">
<style type="text/css">
	.st0{fill:#FFF5F7;}
</style>
<path class="st0" d="M4,19L2,12.3c0-0.2,0-0.4,0.1-0.7c0.1-0.3,0.3-0.4,0.6-0.5L4,10.6V6c0-0.5,0.2-1,0.6-1.4C5,4.2,5.5,4,6,4h3V1h6
	v3h3c0.6,0,1,0.2,1.4,0.6C19.8,5,20,5.4,20,6v4.6l1.3,0.5c0.3,0.1,0.6,0.3,0.6,0.6c0.1,0.3,0.1,0.5,0,0.7L20.1,19
	c-0.8,0-1.6-0.2-2.3-0.6C17.1,18,16.5,17.5,16,17c-0.5,0.5-1.1,1-1.8,1.4C13.5,18.8,12.8,19,12,19s-1.5-0.2-2.2-0.6
	C9.1,18,8.5,17.5,8,17c-0.5,0.5-1.1,1-1.8,1.4C5.5,18.8,4.8,19,4,19z M2,23v-2h2c0.7,0,1.4-0.1,2.1-0.3c0.7-0.2,1.3-0.5,1.9-1
	c0.6,0.4,1.2,0.8,1.9,0.9c0.7,0.2,1.4,0.3,2.1,0.3s1.4-0.1,2.1-0.3c0.7-0.2,1.3-0.5,1.9-0.9c0.6,0.4,1.2,0.8,1.9,1
	c0.7,0.2,1.4,0.3,2.1,0.3h2v2h-2c-0.7,0-1.4-0.1-2-0.3c-0.7-0.2-1.3-0.4-2-0.8c-0.6,0.3-1.3,0.6-2,0.8S12.7,23,12,23s-1.4-0.1-2-0.3
	c-0.7-0.2-1.3-0.4-2-0.8c-0.6,0.3-1.3,0.6-1.9,0.8S4.7,23,4,23H2z M6,9.9L12,8l6,1.9V6H6V9.9z M12,17c0.8,0,1.4-0.3,2-0.8
	c0.5-0.5,1.2-1.3,2-2.2c0.8,0.9,1.3,1.5,1.6,1.9c0.3,0.3,0.6,0.6,1,0.8l1.1-4L12,10.1l-7.8,2.6l1.1,4c0.4-0.2,0.7-0.5,1-0.8
	c0.3-0.3,0.8-0.9,1.6-1.9c0.8,0.9,1.5,1.7,2,2.2C10.6,16.7,11.2,17,12,17z"/>
</svg>
