<?xml version="1.0" encoding="utf-8"?>
<!-- Generator: Adobe Illustrator 23.0.2, SVG Export Plug-In . SVG Version: 6.00 Build 0)  -->
<svg version="1.1" id="Capa_1" xmlns="http://www.w3.org/2000/svg" xmlns:xlink="http://www.w3.org/1999/xlink" x="0px" y="0px"
	 viewBox="0 0 24 24" style="enable-background:new 0 0 24 24;" xml:space="preserve">
<style type="text/css">
	.st0{fill:#FFF5F7;}
</style>
<path class="st0" d="M2,22v-2c0.8,0,1.5,0,2.3-0.1s1.5-0.3,2.2-0.6c-0.8-0.4-1.4-0.9-1.8-1.7C4.2,16.9,4,16.1,4,15.3V13h4v-3h3.4
	L8.1,3.4l1.8-0.9l3.3,6.5c0.3,0.7,0.3,1.3-0.1,2c-0.4,0.6-0.9,0.9-1.7,0.9H10v1c0,0.6-0.2,1-0.6,1.4S8.6,15,8,15H6v0.3
	c0,0.6,0.2,1.1,0.5,1.5c0.4,0.4,0.8,0.7,1.4,0.9l0.3,0.1c0.7,0.2,1,0.6,1.1,1.3c0.1,0.7-0.2,1.2-0.8,1.5c-1,0.6-2.1,0.9-3.2,1.1
	C4.3,21.9,3.2,22,2,22z M16.3,19.1l-1.4-1.4c0.4-0.4,0.6-0.8,0.8-1.2c0.2-0.5,0.3-1,0.3-1.5c0-0.5-0.1-1-0.3-1.5
	c-0.2-0.5-0.5-0.9-0.8-1.2l1.4-1.4c0.5,0.5,0.9,1.2,1.3,1.9c0.3,0.7,0.4,1.5,0.4,2.3c0,0.8-0.1,1.6-0.4,2.2
	C17.3,18,16.8,18.6,16.3,19.1z M19.1,22l-1.4-1.4c0.7-0.7,1.3-1.5,1.7-2.5c0.4-0.9,0.6-2,0.6-3c0-1.1-0.2-2.1-0.6-3.1
	s-1-1.8-1.7-2.5l1.4-1.4C20,9,20.7,10,21.2,11.2c0.5,1.2,0.8,2.5,0.8,3.8c0,1.3-0.3,2.6-0.8,3.8C20.7,20.1,20,21.1,19.1,22z"/>
</svg>
